<?xml version="1.0" encoding="UTF-8"?>
<svg xmlns="http://www.w3.org/2000/svg" xmlns:xlink="http://www.w3.org/1999/xlink" width="25pt" height="25pt" viewBox="0 0 25 25" version="1.1">
<g id="surface1">
<path style="fill-rule:nonzero;fill:rgb(100%,100%,100%);fill-opacity:1;stroke-width:16.5023;stroke-linecap:butt;stroke-linejoin:miter;stroke:rgb(0%,0%,0%);stroke-opacity:1;stroke-miterlimit:4;" d="M 247.44 128 C 247.44 193.96 193.96 247.44 128 247.44 C 62.04 247.44 8.56 193.96 8.56 128 C 8.56 62.04 62.04 8.56 128 8.56 C 193.96 8.56 247.44 62.04 247.44 128 Z M 247.44 128 " transform="matrix(0.0976562,0,0,0.0976562,0,0)"/>
<path style=" stroke:none;fill-rule:nonzero;fill:rgb(0%,0%,0%);fill-opacity:1;" d="M 15.761719 20.570312 L 13.496094 22.191406 L 3.359375 15.019531 L 3.359375 8.917969 L 5.625 7.324219 L 9.261719 9.863281 L 9.261719 4.757812 L 11.527344 3.140625 L 13.820312 4.757812 L 13.820312 9.863281 L 15.464844 8.71875 L 17.40625 10.089844 L 19.375 8.695312 L 21.664062 10.3125 L 21.664062 16.414062 L 19.375 18.007812 L 17.40625 16.613281 L 15.761719 17.78125 Z M 3.984375 8.917969 L 5.628906 10.085938 L 7.296875 8.917969 L 5.628906 7.746094 Z M 5.949219 10.3125 L 7.59375 11.484375 L 9.261719 10.3125 L 7.617188 9.140625 Z M 7.894531 11.707031 L 9.5625 12.875 L 11.230469 11.707031 L 9.5625 10.535156 Z M 11.527344 3.589844 L 9.859375 4.757812 L 11.527344 5.929688 L 13.195312 4.757812 Z M 11.527344 6.378906 L 9.859375 7.546875 L 11.527344 8.71875 L 13.171875 7.523438 Z M 11.527344 9.140625 L 9.859375 10.3125 L 11.527344 11.484375 L 13.171875 10.3125 Z M 9.859375 13.101562 L 11.527344 14.246094 L 13.171875 13.078125 L 11.527344 11.929688 Z M 11.828125 14.46875 L 13.496094 15.640625 L 15.140625 14.46875 L 13.496094 13.300781 Z M 15.464844 9.140625 L 13.792969 10.3125 L 15.4375 11.484375 L 17.105469 10.3125 Z M 19.375 9.140625 L 17.730469 10.3125 L 19.375 11.484375 L 21.042969 10.3125 Z M 19.375 9.140625 "/>
</g>
</svg>
